<?xml version="1.0" encoding="utf-8"?>
<!-- Generator: Adobe Illustrator 15.1.0, SVG Export Plug-In . SVG Version: 6.00 Build 0)  -->
<!DOCTYPE svg PUBLIC "-//W3C//DTD SVG 1.1//EN" "http://www.w3.org/Graphics/SVG/1.1/DTD/svg11.dtd">
<svg version="1.1" id="Layer_1" xmlns="http://www.w3.org/2000/svg" xmlns:xlink="http://www.w3.org/1999/xlink" x="0px" y="0px"
	 width="240px" height="48px" viewBox="0 0 240 48" enable-background="new 0 0 240 48" xml:space="preserve">
<polygon points="107.444,6.291 117.848,6.291 117.848,22.241 138.653,22.241 138.653,6.291 149.057,6.291 149.057,45.77 
	138.653,45.77 138.653,28.463 117.848,28.463 117.848,45.77 107.444,45.77 "/>
<g>
	<path d="M191.634,45.77h-9.438v-3.959h-0.147c-3.047,2.828-7.357,4.638-12.559,4.638c-9.064,0-13.004-4.863-13.004-11.425V16.642
		h9.957v15.554c0,3.563,0.075,8.37,6.466,8.37c7.208,0,8.769-5.938,8.769-9.671V16.642h9.957V45.77z"/>
	<path d="M200.401,3.35h9.957v17.025h0.147c2.749-2.772,6.242-4.413,11.444-4.413c11.741,0,16.05,7.127,16.05,15.159
		c0,7.975-4.309,15.327-16.05,15.327c-4.236,0-8.843-1.131-11.741-4.241h-0.148v3.563h-9.659V3.35z M219.2,40.565
		c6.539,0,8.397-5.429,8.397-9.444c0-3.903-1.784-9.276-8.248-9.276c-6.391,0-8.918,5.203-8.918,9.276
		C210.432,35.25,212.586,40.565,219.2,40.565"/>
	<path d="M10.82,29.126H11c3.815-7.153,10.132-13.292,15.795-13.292c4.826,0,5.602,3.935,4.172,8.643l-4.709,15.616
		C25.66,42,25.66,43.37,26.854,43.37c1.669,0,4.291-4.231,5.364-6.317l1.43,0.834c-2.027,4.529-5.364,8.582-9.476,8.582
		c-3.397,0-4.231-2.503-3.1-6.436l4.888-16.927c0.715-2.444,0-4.172-1.907-4.172c-5.185,0-11.086,9.06-12.873,13.708
		c-1.491,3.756-2.384,7.033-3.994,13.112L2,46.469l8.701-38.8C11.238,5.345,11,4.928,9.51,4.75L6.112,4.332l0.357-1.371l10.729-1.43
		l0.298,0.298L10.82,29.126z"/>
	<path d="M50.408,15.834l0.298,0.298l-6.496,23.96c-0.536,1.906-0.596,3.277,0.596,3.277c1.669,0,4.29-4.231,5.365-6.317l1.43,0.834
		c-2.027,4.529-5.365,8.583-9.656,8.583c-3.218,0-3.993-2.444-3.099-5.841l5.006-18.655c0.537-2.086,0.358-2.622-1.251-2.742
		l-3.397-0.298l0.357-1.43L50.408,15.834z"/>
	<path d="M77.333,20.484c0,1.847-1.669,2.741-2.861,2.741c-0.894,0-1.371-0.477-1.669-1.192c-1.252-2.801-2.801-4.112-4.768-4.112
		c-2.205,0-3.695,1.966-3.695,3.874c0,1.668,0.655,3.635,4.232,6.556c3.992,3.278,5.483,5.842,5.483,9.119
		c0,4.887-3.874,8.999-10.311,8.999c-5.662,0-8.94-3.099-8.94-5.661c0-1.609,1.311-3.22,3.099-3.22c1.013,0,1.549,0.657,1.907,1.79
		c0.954,3.158,3.16,5.005,5.365,5.005c2.502,0,4.29-1.669,4.29-4.469c0-2.326-1.549-4.947-4.112-6.974
		c-3.099-2.504-5.245-5.244-5.245-8.344c0-4.828,3.577-8.762,9.655-8.762C75.067,15.835,77.333,18.636,77.333,20.484"/>
	<path d="M92.829,18.815l-5.304,21.694C87.167,42,87.167,43.37,88.418,43.37c1.847,0,4.887-3.993,6.258-6.317l1.311,1.013
		c-2.384,4.471-6.198,8.403-10.966,8.403c-2.981,0-3.696-2.444-2.801-5.841l5.363-21.813h-4.946l0.655-2.265h4.828l0.775-2.921
		l5.781-4.588l0.715,0.417l-2.026,7.092h7.569l-0.656,2.265H92.829z"/>
	<path fill="#D21E23" d="M53.329,6.417c0,2.384-1.491,3.994-3.814,3.994c-1.79,0-3.279-1.133-3.279-3.338
		c0-1.906,1.311-3.933,3.874-3.933C51.779,3.141,53.329,4.093,53.329,6.417"/>
</g>
</svg>
